<mxfile host="app.diagrams.net" modified="2021-10-28T08:34:58.464Z" agent="5.0 (Windows NT 10.0; Win64; x64) AppleWebKit/537.36 (KHTML, like Gecko) Chrome/87.0.4280.66 Safari/537.36" etag="7PwvyxcC1BSoyMMZoFeX" version="15.6.1" type="github">
  <diagram id="kzo3YNm_NukJL_NIjrdw" name="Page-1">
    <mxGraphModel dx="1038" dy="580" grid="0" gridSize="10" guides="1" tooltips="1" connect="1" arrows="1" fold="1" page="1" pageScale="1" pageWidth="827" pageHeight="1169" math="0" shadow="0">
      <root>
        <mxCell id="0" />
        <mxCell id="1" parent="0" />
        <mxCell id="5lSnz6qu_hnjuUwqikMa-1" value="&lt;font style=&quot;font-size: 18px&quot;&gt;IoT设备&lt;/font&gt;" style="rounded=1;whiteSpace=wrap;html=1;strokeColor=#007FFF;strokeWidth=3;" vertex="1" parent="1">
          <mxGeometry x="59" y="301" width="97" height="32" as="geometry" />
        </mxCell>
        <mxCell id="5lSnz6qu_hnjuUwqikMa-3" value="&amp;nbsp; &amp;nbsp; &amp;nbsp; &amp;nbsp; &amp;nbsp; &amp;nbsp; &amp;nbsp; &amp;nbsp;&lt;font color=&quot;#ff3333&quot;&gt;&amp;nbsp;&lt;font style=&quot;font-size: 14px&quot;&gt;可&lt;br&gt;&amp;nbsp; &amp;nbsp; &amp;nbsp; &amp;nbsp; &amp;nbsp; &amp;nbsp; &amp;nbsp; &amp;nbsp; &amp;nbsp; &amp;nbsp; 编&lt;br&gt;&amp;nbsp; &amp;nbsp; &amp;nbsp; &amp;nbsp; &amp;nbsp; &amp;nbsp; &amp;nbsp; &amp;nbsp; &amp;nbsp; &amp;nbsp; 程&lt;/font&gt;&lt;/font&gt;" style="ellipse;whiteSpace=wrap;html=1;aspect=fixed;fontSize=18;" vertex="1" parent="1">
          <mxGeometry x="243" y="254" width="122" height="122" as="geometry" />
        </mxCell>
        <mxCell id="5lSnz6qu_hnjuUwqikMa-4" value="&lt;font style=&quot;font-size: 14px&quot;&gt;边缘计算产品&lt;/font&gt;" style="shape=cylinder3;whiteSpace=wrap;html=1;boundedLbl=1;backgroundOutline=1;size=15;fontSize=18;fillColor=#d5e8d4;strokeColor=#82b366;" vertex="1" parent="1">
          <mxGeometry x="268" y="277" width="52.5" height="80" as="geometry" />
        </mxCell>
        <mxCell id="5lSnz6qu_hnjuUwqikMa-6" value="" style="endArrow=classic;html=1;rounded=0;fontSize=14;fontColor=#FF3333;" edge="1" parent="1">
          <mxGeometry width="50" height="50" relative="1" as="geometry">
            <mxPoint x="158" y="321" as="sourcePoint" />
            <mxPoint x="239" y="321" as="targetPoint" />
          </mxGeometry>
        </mxCell>
        <mxCell id="5lSnz6qu_hnjuUwqikMa-8" value="&lt;font color=&quot;#000000&quot;&gt;IoT监控平台&lt;/font&gt;" style="ellipse;shape=cloud;whiteSpace=wrap;html=1;fontSize=14;fontColor=#FF3333;strokeColor=#E6E6E6;strokeWidth=3;fillColor=#E6E6E6;" vertex="1" parent="1">
          <mxGeometry x="434.5" y="203" width="138" height="87" as="geometry" />
        </mxCell>
        <mxCell id="5lSnz6qu_hnjuUwqikMa-9" value="&lt;font color=&quot;#000000&quot;&gt;设备管理&lt;/font&gt;" style="ellipse;shape=cloud;whiteSpace=wrap;html=1;fontSize=14;fontColor=#FF3333;strokeColor=#E6E6E6;strokeWidth=3;fillColor=#E6E6E6;" vertex="1" parent="1">
          <mxGeometry x="438" y="342" width="131" height="90" as="geometry" />
        </mxCell>
        <mxCell id="5lSnz6qu_hnjuUwqikMa-11" value="" style="strokeWidth=2;html=1;shape=mxgraph.flowchart.annotation_2;align=left;labelPosition=right;pointerEvents=1;fontSize=14;fontColor=#000000;fillColor=#E6E6E6;" vertex="1" parent="1">
          <mxGeometry x="368" y="254" width="73.5" height="136" as="geometry" />
        </mxCell>
      </root>
    </mxGraphModel>
  </diagram>
</mxfile>
